<mxfile host="app.diagrams.net" agent="Mozilla/5.0 (Windows NT 10.0; Win64; x64) AppleWebKit/537.36 (KHTML, like Gecko) Chrome/130.0.0.0 Safari/537.36 Edg/130.0.0.0" version="24.8.4">
  <diagram name="第 1 页" id="cm_AohdfdE1-iNRAc2D3">
    <mxGraphModel dx="1869" dy="613" grid="1" gridSize="10" guides="1" tooltips="1" connect="1" arrows="1" fold="1" page="1" pageScale="1" pageWidth="827" pageHeight="1169" math="0" shadow="0">
      <root>
        <mxCell id="0" />
        <mxCell id="1" parent="0" />
        <mxCell id="9hy98mDcW-Pt5C9SxDip-37" style="edgeStyle=none;shape=connector;rounded=0;orthogonalLoop=1;jettySize=auto;html=1;exitX=1;exitY=0.5;exitDx=0;exitDy=0;entryX=0.5;entryY=0;entryDx=0;entryDy=0;strokeColor=default;align=center;verticalAlign=middle;fontFamily=Helvetica;fontSize=11;fontColor=default;labelBackgroundColor=default;endArrow=none;endFill=0;" edge="1" parent="1" source="9hy98mDcW-Pt5C9SxDip-1" target="9hy98mDcW-Pt5C9SxDip-36">
          <mxGeometry relative="1" as="geometry" />
        </mxCell>
        <mxCell id="9hy98mDcW-Pt5C9SxDip-1" value="&#xa;Pharmaceutical_Company&#xa;&#xa;" style="rounded=0;whiteSpace=wrap;html=1;" vertex="1" parent="1">
          <mxGeometry x="20" y="190" width="190" height="60" as="geometry" />
        </mxCell>
        <mxCell id="9hy98mDcW-Pt5C9SxDip-5" style="rounded=0;orthogonalLoop=1;jettySize=auto;html=1;exitX=0.5;exitY=1;exitDx=0;exitDy=0;endArrow=none;endFill=0;" edge="1" parent="1" source="9hy98mDcW-Pt5C9SxDip-2" target="9hy98mDcW-Pt5C9SxDip-1">
          <mxGeometry relative="1" as="geometry" />
        </mxCell>
        <mxCell id="9hy98mDcW-Pt5C9SxDip-2" value="&#xa;Company_Name&#xa;&#xa;" style="ellipse;whiteSpace=wrap;html=1;" vertex="1" parent="1">
          <mxGeometry x="10" y="20" width="120" height="80" as="geometry" />
        </mxCell>
        <mxCell id="9hy98mDcW-Pt5C9SxDip-6" style="edgeStyle=none;shape=connector;rounded=0;orthogonalLoop=1;jettySize=auto;html=1;exitX=0.5;exitY=1;exitDx=0;exitDy=0;strokeColor=default;align=center;verticalAlign=middle;fontFamily=Helvetica;fontSize=11;fontColor=default;labelBackgroundColor=default;endArrow=none;endFill=0;" edge="1" parent="1" source="9hy98mDcW-Pt5C9SxDip-4">
          <mxGeometry relative="1" as="geometry">
            <mxPoint x="110" y="190" as="targetPoint" />
          </mxGeometry>
        </mxCell>
        <mxCell id="9hy98mDcW-Pt5C9SxDip-4" value="&#xa;Phone&#xa;&#xa;" style="ellipse;whiteSpace=wrap;html=1;" vertex="1" parent="1">
          <mxGeometry x="170" y="20" width="120" height="80" as="geometry" />
        </mxCell>
        <mxCell id="9hy98mDcW-Pt5C9SxDip-34" style="edgeStyle=none;shape=link;rounded=0;orthogonalLoop=1;jettySize=auto;html=1;exitX=0.5;exitY=1;exitDx=0;exitDy=0;entryX=0.5;entryY=0;entryDx=0;entryDy=0;strokeColor=default;align=center;verticalAlign=middle;fontFamily=Helvetica;fontSize=11;fontColor=default;labelBackgroundColor=default;endArrow=none;endFill=0;" edge="1" parent="1" source="9hy98mDcW-Pt5C9SxDip-7" target="9hy98mDcW-Pt5C9SxDip-33">
          <mxGeometry relative="1" as="geometry" />
        </mxCell>
        <mxCell id="9hy98mDcW-Pt5C9SxDip-38" style="edgeStyle=none;shape=link;rounded=0;orthogonalLoop=1;jettySize=auto;html=1;exitX=0.75;exitY=1;exitDx=0;exitDy=0;entryX=1;entryY=0;entryDx=0;entryDy=0;strokeColor=default;align=center;verticalAlign=middle;fontFamily=Helvetica;fontSize=11;fontColor=default;labelBackgroundColor=default;endArrow=none;endFill=0;" edge="1" parent="1" source="9hy98mDcW-Pt5C9SxDip-7" target="9hy98mDcW-Pt5C9SxDip-36">
          <mxGeometry relative="1" as="geometry" />
        </mxCell>
        <mxCell id="9hy98mDcW-Pt5C9SxDip-7" value="&#xa;Pharmacy&#xa;&#xa;" style="rounded=0;whiteSpace=wrap;html=1;fontFamily=Helvetica;fontSize=11;fontColor=default;labelBackgroundColor=default;" vertex="1" parent="1">
          <mxGeometry x="520" y="170" width="120" height="60" as="geometry" />
        </mxCell>
        <mxCell id="9hy98mDcW-Pt5C9SxDip-12" style="edgeStyle=none;shape=connector;rounded=0;orthogonalLoop=1;jettySize=auto;html=1;exitX=0.5;exitY=1;exitDx=0;exitDy=0;entryX=0.5;entryY=0;entryDx=0;entryDy=0;strokeColor=default;align=center;verticalAlign=middle;fontFamily=Helvetica;fontSize=11;fontColor=default;labelBackgroundColor=default;endArrow=none;endFill=0;" edge="1" parent="1" source="9hy98mDcW-Pt5C9SxDip-8" target="9hy98mDcW-Pt5C9SxDip-7">
          <mxGeometry relative="1" as="geometry" />
        </mxCell>
        <mxCell id="9hy98mDcW-Pt5C9SxDip-8" value="&#xa;Pharmacy_Name&#xa;&#xa;" style="ellipse;whiteSpace=wrap;html=1;fontFamily=Helvetica;fontSize=11;fontColor=default;labelBackgroundColor=default;" vertex="1" parent="1">
          <mxGeometry x="354" y="30" width="120" height="80" as="geometry" />
        </mxCell>
        <mxCell id="9hy98mDcW-Pt5C9SxDip-15" style="edgeStyle=none;shape=connector;rounded=0;orthogonalLoop=1;jettySize=auto;html=1;exitX=0.5;exitY=1;exitDx=0;exitDy=0;strokeColor=default;align=center;verticalAlign=middle;fontFamily=Helvetica;fontSize=11;fontColor=default;labelBackgroundColor=default;endArrow=none;endFill=0;" edge="1" parent="1" source="9hy98mDcW-Pt5C9SxDip-9">
          <mxGeometry relative="1" as="geometry">
            <mxPoint x="580" y="170" as="targetPoint" />
          </mxGeometry>
        </mxCell>
        <mxCell id="9hy98mDcW-Pt5C9SxDip-9" value="&#xa;Address&#xa;&#xa;" style="ellipse;whiteSpace=wrap;html=1;fontFamily=Helvetica;fontSize=11;fontColor=default;labelBackgroundColor=default;" vertex="1" parent="1">
          <mxGeometry x="520" y="30" width="120" height="80" as="geometry" />
        </mxCell>
        <mxCell id="9hy98mDcW-Pt5C9SxDip-14" style="edgeStyle=none;shape=connector;rounded=0;orthogonalLoop=1;jettySize=auto;html=1;exitX=0.5;exitY=1;exitDx=0;exitDy=0;strokeColor=default;align=center;verticalAlign=middle;fontFamily=Helvetica;fontSize=11;fontColor=default;labelBackgroundColor=default;endArrow=none;endFill=0;" edge="1" parent="1" source="9hy98mDcW-Pt5C9SxDip-11">
          <mxGeometry relative="1" as="geometry">
            <mxPoint x="580" y="170" as="targetPoint" />
          </mxGeometry>
        </mxCell>
        <mxCell id="9hy98mDcW-Pt5C9SxDip-11" value="&#xa;Phone_Numbers&#xa;&#xa;" style="ellipse;shape=doubleEllipse;whiteSpace=wrap;html=1;fontFamily=Helvetica;fontSize=11;fontColor=default;labelBackgroundColor=default;" vertex="1" parent="1">
          <mxGeometry x="660" y="25" width="120" height="90" as="geometry" />
        </mxCell>
        <mxCell id="9hy98mDcW-Pt5C9SxDip-20" style="edgeStyle=none;shape=connector;rounded=0;orthogonalLoop=1;jettySize=auto;html=1;exitX=0.5;exitY=1;exitDx=0;exitDy=0;entryX=0.5;entryY=0;entryDx=0;entryDy=0;strokeColor=default;align=center;verticalAlign=middle;fontFamily=Helvetica;fontSize=11;fontColor=default;labelBackgroundColor=default;endArrow=none;endFill=0;" edge="1" parent="1" source="9hy98mDcW-Pt5C9SxDip-16" target="9hy98mDcW-Pt5C9SxDip-19">
          <mxGeometry relative="1" as="geometry" />
        </mxCell>
        <mxCell id="9hy98mDcW-Pt5C9SxDip-21" style="edgeStyle=none;shape=connector;rounded=0;orthogonalLoop=1;jettySize=auto;html=1;exitX=0.5;exitY=1;exitDx=0;exitDy=0;entryX=0.5;entryY=0;entryDx=0;entryDy=0;strokeColor=default;align=center;verticalAlign=middle;fontFamily=Helvetica;fontSize=11;fontColor=default;labelBackgroundColor=default;endArrow=none;endFill=0;" edge="1" parent="1" source="9hy98mDcW-Pt5C9SxDip-16" target="9hy98mDcW-Pt5C9SxDip-17">
          <mxGeometry relative="1" as="geometry" />
        </mxCell>
        <mxCell id="9hy98mDcW-Pt5C9SxDip-31" style="edgeStyle=none;shape=link;rounded=0;orthogonalLoop=1;jettySize=auto;html=1;exitX=0.5;exitY=0;exitDx=0;exitDy=0;entryX=0.5;entryY=1;entryDx=0;entryDy=0;strokeColor=default;align=center;verticalAlign=middle;fontFamily=Helvetica;fontSize=11;fontColor=default;labelBackgroundColor=default;endArrow=none;endFill=0;" edge="1" parent="1" source="9hy98mDcW-Pt5C9SxDip-16" target="9hy98mDcW-Pt5C9SxDip-30">
          <mxGeometry relative="1" as="geometry" />
        </mxCell>
        <mxCell id="9hy98mDcW-Pt5C9SxDip-16" value="&#xa;Drug&#xa;&#xa;" style="rounded=0;whiteSpace=wrap;html=1;fontFamily=Helvetica;fontSize=11;fontColor=default;labelBackgroundColor=default;" vertex="1" parent="1">
          <mxGeometry x="55" y="510" width="120" height="60" as="geometry" />
        </mxCell>
        <mxCell id="9hy98mDcW-Pt5C9SxDip-17" value="&#xa;Trade_Name&#xa;&#xa;" style="ellipse;whiteSpace=wrap;html=1;fontFamily=Helvetica;fontSize=11;fontColor=default;labelBackgroundColor=default;" vertex="1" parent="1">
          <mxGeometry x="175" y="630" width="120" height="80" as="geometry" />
        </mxCell>
        <mxCell id="9hy98mDcW-Pt5C9SxDip-19" value="&#xa;Formula&#xa;&#xa;" style="ellipse;whiteSpace=wrap;html=1;fontFamily=Helvetica;fontSize=11;fontColor=default;labelBackgroundColor=default;" vertex="1" parent="1">
          <mxGeometry x="-50" y="630" width="120" height="80" as="geometry" />
        </mxCell>
        <mxCell id="9hy98mDcW-Pt5C9SxDip-26" style="edgeStyle=none;shape=connector;rounded=0;orthogonalLoop=1;jettySize=auto;html=1;exitX=0.5;exitY=1;exitDx=0;exitDy=0;entryX=0.5;entryY=0;entryDx=0;entryDy=0;strokeColor=default;align=center;verticalAlign=middle;fontFamily=Helvetica;fontSize=11;fontColor=default;labelBackgroundColor=default;endArrow=none;endFill=0;" edge="1" parent="1" source="9hy98mDcW-Pt5C9SxDip-22" target="9hy98mDcW-Pt5C9SxDip-23">
          <mxGeometry relative="1" as="geometry" />
        </mxCell>
        <mxCell id="9hy98mDcW-Pt5C9SxDip-27" style="edgeStyle=none;shape=connector;rounded=0;orthogonalLoop=1;jettySize=auto;html=1;exitX=0.5;exitY=1;exitDx=0;exitDy=0;entryX=0.5;entryY=0;entryDx=0;entryDy=0;strokeColor=default;align=center;verticalAlign=middle;fontFamily=Helvetica;fontSize=11;fontColor=default;labelBackgroundColor=default;endArrow=none;endFill=0;" edge="1" parent="1" source="9hy98mDcW-Pt5C9SxDip-22" target="9hy98mDcW-Pt5C9SxDip-24">
          <mxGeometry relative="1" as="geometry" />
        </mxCell>
        <mxCell id="9hy98mDcW-Pt5C9SxDip-29" style="edgeStyle=none;shape=connector;rounded=0;orthogonalLoop=1;jettySize=auto;html=1;exitX=0.5;exitY=1;exitDx=0;exitDy=0;entryX=0.5;entryY=0;entryDx=0;entryDy=0;strokeColor=default;align=center;verticalAlign=middle;fontFamily=Helvetica;fontSize=11;fontColor=default;labelBackgroundColor=default;endArrow=none;endFill=0;" edge="1" parent="1" source="9hy98mDcW-Pt5C9SxDip-22" target="9hy98mDcW-Pt5C9SxDip-25">
          <mxGeometry relative="1" as="geometry" />
        </mxCell>
        <mxCell id="9hy98mDcW-Pt5C9SxDip-39" style="edgeStyle=none;shape=link;rounded=0;orthogonalLoop=1;jettySize=auto;html=1;exitX=0.5;exitY=0;exitDx=0;exitDy=0;entryX=1;entryY=1;entryDx=0;entryDy=0;strokeColor=default;align=center;verticalAlign=middle;fontFamily=Helvetica;fontSize=11;fontColor=default;labelBackgroundColor=default;endArrow=none;endFill=0;" edge="1" parent="1" source="9hy98mDcW-Pt5C9SxDip-22" target="9hy98mDcW-Pt5C9SxDip-36">
          <mxGeometry relative="1" as="geometry" />
        </mxCell>
        <mxCell id="9hy98mDcW-Pt5C9SxDip-22" value="&#xa;Contract&#xa;&#xa;" style="rounded=0;whiteSpace=wrap;html=1;fontFamily=Helvetica;fontSize=11;fontColor=default;labelBackgroundColor=default;" vertex="1" parent="1">
          <mxGeometry x="530" y="480" width="120" height="60" as="geometry" />
        </mxCell>
        <mxCell id="9hy98mDcW-Pt5C9SxDip-23" value="&#xa;Start_Date&#xa;&#xa;" style="ellipse;whiteSpace=wrap;html=1;fontFamily=Helvetica;fontSize=11;fontColor=default;labelBackgroundColor=default;" vertex="1" parent="1">
          <mxGeometry x="380" y="585" width="120" height="80" as="geometry" />
        </mxCell>
        <mxCell id="9hy98mDcW-Pt5C9SxDip-24" value="&#xa;End_Date&#xa;&#xa;" style="ellipse;whiteSpace=wrap;html=1;fontFamily=Helvetica;fontSize=11;fontColor=default;labelBackgroundColor=default;" vertex="1" parent="1">
          <mxGeometry x="550" y="580" width="120" height="80" as="geometry" />
        </mxCell>
        <mxCell id="9hy98mDcW-Pt5C9SxDip-25" value="&#xa;Content&#xa;&#xa;" style="ellipse;whiteSpace=wrap;html=1;fontFamily=Helvetica;fontSize=11;fontColor=default;labelBackgroundColor=default;" vertex="1" parent="1">
          <mxGeometry x="700" y="585" width="120" height="80" as="geometry" />
        </mxCell>
        <mxCell id="9hy98mDcW-Pt5C9SxDip-32" style="edgeStyle=none;shape=connector;rounded=0;orthogonalLoop=1;jettySize=auto;html=1;exitX=0.5;exitY=0;exitDx=0;exitDy=0;entryX=0.5;entryY=1;entryDx=0;entryDy=0;strokeColor=default;align=center;verticalAlign=middle;fontFamily=Helvetica;fontSize=11;fontColor=default;labelBackgroundColor=default;endArrow=classic;endFill=1;" edge="1" parent="1" source="9hy98mDcW-Pt5C9SxDip-30" target="9hy98mDcW-Pt5C9SxDip-1">
          <mxGeometry relative="1" as="geometry" />
        </mxCell>
        <mxCell id="9hy98mDcW-Pt5C9SxDip-30" value="&#xa;Develops&#xa;&#xa;" style="rhombus;whiteSpace=wrap;html=1;fontFamily=Helvetica;fontSize=11;fontColor=default;labelBackgroundColor=default;" vertex="1" parent="1">
          <mxGeometry x="55" y="340" width="120" height="90" as="geometry" />
        </mxCell>
        <mxCell id="9hy98mDcW-Pt5C9SxDip-35" style="edgeStyle=none;shape=link;rounded=0;orthogonalLoop=1;jettySize=auto;html=1;exitX=0.5;exitY=1;exitDx=0;exitDy=0;entryX=1;entryY=0.5;entryDx=0;entryDy=0;strokeColor=default;align=center;verticalAlign=middle;fontFamily=Helvetica;fontSize=11;fontColor=default;labelBackgroundColor=default;endArrow=none;endFill=0;" edge="1" parent="1" source="9hy98mDcW-Pt5C9SxDip-33" target="9hy98mDcW-Pt5C9SxDip-16">
          <mxGeometry relative="1" as="geometry" />
        </mxCell>
        <mxCell id="9hy98mDcW-Pt5C9SxDip-33" value="&#xa;Sells&#xa;&#xa;" style="rhombus;whiteSpace=wrap;html=1;fontFamily=Helvetica;fontSize=11;fontColor=default;labelBackgroundColor=default;" vertex="1" parent="1">
          <mxGeometry x="274" y="345" width="80" height="80" as="geometry" />
        </mxCell>
        <mxCell id="9hy98mDcW-Pt5C9SxDip-36" value="&#xa;Signs&#xa;&#xa;" style="rhombus;whiteSpace=wrap;html=1;fontFamily=Helvetica;fontSize=11;fontColor=default;labelBackgroundColor=default;" vertex="1" parent="1">
          <mxGeometry x="430" y="340" width="80" height="80" as="geometry" />
        </mxCell>
      </root>
    </mxGraphModel>
  </diagram>
</mxfile>
